PathFileType	4	(X/Y/Z)	Walk1_0-155.trc
DataRate	CameraRate	NumFrames	NumMarkers	Units	OrigDataRate	OrigDataStartFrame	OrigNumFrames
30	30	8	22	m	30	19	155
Frame#	Time	Hip			RHip			RKnee			RAnkle			RBigToe			RSmallToe			RHeel			LHip			LKnee			LAnkle			LBigToe			LSmallToe			LHeel			Neck			Head			Nose			RShoulder			RElbow			RWrist			LShoulder			LElbow			LWrist		
		X1	Y1	Z1	X2	Y2	Z2	X3	Y3	Z3	X4	Y4	Z4	X5	Y5	Z5	X6	Y6	Z6	X7	Y7	Z7	X8	Y8	Z8	X9	Y9	Z9	X10	Y10	Z10	X11	Y11	Z11	X12	Y12	Z12	X13	Y13	Z13	X14	Y14	Z14	X15	Y15	Z15	X16	Y16	Z16	X17	Y17	Z17	X18	Y18	Z18	X19	Y19	Z19	X20	Y20	Z20	X21	Y21	Z21	X22	Y22	Z22
20	0.6666666666666666	-2.5093482884728813	0.8378291348530623	0.32355453443135374	-2.471325267611666	0.825155269631078	0.41841568027334874	-2.3045098405880196	0.5182580895680152	0.46331454624058016	-2.4715771375152977	0.14423554386390772	0.4888128286415646	-2.323528706107752	0.017279669280421465	0.5258188118035394	-2.353884939527211	0.025833481210242835	0.5824085191564269	-2.5189809052423473	0.07446828191841055	0.4804229639582024	-2.528290355374579	0.8039547019456532	0.227683637200302	-2.5006036563209304	0.45463184099223236	0.23591035880636652	-2.5802518437930404	0.07266103738893846	0.2737670199123577	-2.3862360508637255	-0.012703331471358163	0.26857489299379417	-2.435204239304399	-0.01836786201126521	0.21124364117237107	-2.6303221881064274	-0.009740698198566496	0.2813813453650117	-2.492179880609597	1.51687473443777	0.276865261255379	-2.4293816471396297	1.771885150640406	0.2277947502581191	-2.3564660641134876	1.6368316592884418	0.2783532988120746	-2.5349438339730304	1.402200718680161	0.4632176583039756	-2.5128608528079326	1.0892553259210689	0.5513368889414555	-2.424066839958202	0.8518632350469089	0.5684687025099804	-2.509805751569579	1.390414355578603	0.12750201739539557	-2.5091438856610333	1.0855014096681228	0.06630663448322185	-2.4612275631573373	0.8354930429790818	0.07902447962696532
21	0.7	-2.4964444540797808	0.8402045621696926	0.3215794873768016	-2.4563867744369183	0.8347797678926757	0.4124406925178504	-2.2838974875999383	0.5290912078695459	0.45771211847940985	-2.429853344893248	0.14952716467907512	0.4801325776669059	-2.2948244203060466	0.011732310527020666	0.513046523513048	-2.3403405896387235	0.027239164678094074	0.5634714403700011	-2.5269535752323407	0.05764501166671819	0.4562242649028987	-2.5261768997050713	0.8113725185659354	0.2244041472871858	-2.496676419321629	0.4616143402914596	0.23263044991979054	-2.57753076514324	0.07352067540049684	0.2714033950749406	-2.3874556647263767	-0.01275136496402795	0.2689027092099899	-2.437467353898737	-0.01891553874871288	0.2131791024606657	-2.6316161276725816	-0.00464690650822233	0.27480031287751755	-2.481424790808162	1.5204018334857676	0.27386346698901526	-2.415605008146474	1.7743907451118015	0.2229785641926064	-2.3471308147573136	1.6370997239552996	0.28002588756030644	-2.5264749459089475	1.4071788110058392	0.4652959585325071	-2.5106971693171545	1.0907920967537958	0.5492110297915453	-2.425446010776819	0.8517665757439642	0.5697685022233763	-2.5463246531538597	1.4098102762616218	0.051261993971071694	-2.4960708542507954	1.086910368528157	0.06593011286218718	-2.4492848851470534	0.8366161772169399	0.07594438847475704
22	0.7333333333333333	-2.4831726054476397	0.8413251516292015	0.3177597394670574	-2.441593256682668	0.8382375442452267	0.4067443012513298	-2.291861648044465	0.5451577651555555	0.4359718355406723	-2.394505789949605	0.14653389498187105	0.47222813408473624	-2.2471080478305923	0.014789142674552058	0.49836661434880414	-2.278743027295733	0.02527560621216383	0.5431905008527341	-2.4824742326042037	0.05540961506025453	0.45278246613990025	-2.5183201409960034	0.8119537014803622	0.2219885070933319	-2.49341112825238	0.46017868483720475	0.23044305627285636	-2.576806554055631	0.07510311879912995	0.26791403898069555	-2.38172923021907	-0.01309248567325937	0.2666760146258475	-2.434622118550126	-0.020844971550245773	0.21275134024934084	-2.6306617623984025	-0.0065411056102864275	0.27444639042560187	-2.470388069336206	1.5201300936793316	0.2748280056756767	-2.414982783360413	1.7791277107541736	0.2836455939263195	-2.3339121860124274	1.6356692702516418	0.28093093632112753	-2.515404963552585	1.4068573623583347	0.46442739634581987	-2.5045216326010236	1.0909973459392677	0.5478261239962035	-2.4218649908096035	0.8462250851729105	0.5667172355583169	-2.536633129090836	1.4098320574590284	0.04591777343254442	-2.4864798120650327	1.0885915362583534	0.062039186099078165	-2.4401217935490025	0.8383998213895371	0.07263994436610335
23	0.7666666666666667	-2.4717654000465186	0.8444838078847928	0.3195441748537328	-2.4261522879394044	0.840828889026275	0.40950174381395493	-2.252915243498484	0.5263626684752364	0.4550372947010248	-2.35002082426398	0.14220582973924653	0.4661268167869469	-2.181577518849109	0.01948143990600933	0.48253008137147413	-2.213441832007862	0.027116737755058677	0.5298858380493473	-2.431159549697784	0.05149015262203052	0.45072758325759005	-2.5081437978251118	0.8145301599527415	0.22441062952568547	-2.486927599544187	0.4573587312137939	0.23392644890495393	-2.5723244392766977	0.07805707028311515	0.26389097160559216	-2.3835648127023195	-0.02017369308045714	0.2678112715213485	-2.4372567856128775	-0.02344959775780676	0.21411575913963846	-2.6260352786658734	-0.00021919417719932688	0.26459668922723495	-2.4582700481882385	1.5215507199789997	0.27317278722888244	-2.3960193096773112	1.7742390642019588	0.23126815718264382	-2.304254635060882	1.6370706421627086	0.29497055884772755	-2.503937359886029	1.40831957857401	0.46269207147003394	-2.4994428212847515	1.0913621800225284	0.5496153037648571	-2.4268015515063657	0.845556753605865	0.5702395159712824	-2.525827939664311	1.41159602917567	0.04916609162597806	-2.4723784073745336	1.0898750839844473	0.06495740136624946	-2.4233057227275525	0.8407665185625336	0.0737588549297152
24	0.8	-2.4585990766627477	0.8408723436618263	0.31544187483369013	-2.4124713729912535	0.8413166198326625	0.4059114938348002	-2.2447255583341232	0.5270120631814542	0.4525551356583631	-2.3090449004577804	0.12774567631782627	0.46686133401347324	-2.1322270268284824	0.04623481486451072	0.48585901126789166	-2.1544134644360318	0.030714594258158517	0.5322845411253071	-2.373121997553464	0.038881685433890555	0.45227273349349506	-2.4961226835808947	0.8125191055530908	0.22454839911828817	-2.483806054021409	0.4544915671546667	0.22950061898601368	-2.5752079664295913	0.07119568410301327	0.26084529550086466	-2.3818980785732764	-0.021512777382967495	0.2682426301791073	-2.431971894005844	-0.023848957136875456	0.21473514125837367	-2.625375971568033	-0.007579011561360258	0.2635653125007551	-2.4461488489782885	1.519155197432977	0.2711191191326173	-2.379652709391635	1.7740760380405327	0.24219320890574747	-2.2877291359305842	1.6357607816323672	0.2989293598589801	-2.4893194310810958	1.405085047141439	0.45658395674546165	-2.4918174262908623	1.0921800036350788	0.5486932668212774	-2.4249476900481493	0.8394082869028588	0.5690192788069017	-2.513807591065263	1.4107086695575286	0.04380098867244151	-2.457724095464106	1.0890324725322675	0.06308285129697319	-2.4097007836506994	0.8397713341249129	0.07435219399382015
25	0.8333333333333334	-2.4413803825231386	0.8479548947196285	0.31757700766986235	-2.3885941298385354	0.8330351190239951	0.41417746860233295	-2.2624096487038163	0.5322237034649047	0.42927269601569196	-2.277489814168062	0.1339005040591236	0.45436124100967895	-2.066109352053821	0.0615784792929657	0.4896272243871763	-2.0897671106439573	0.042648437767094385	0.5343671980493954	-2.308182805888248	0.05806357181587771	0.46379389707522767	-2.474450120043856	0.8056291281866784	0.22839562312006403	-2.4817613385402666	0.4446629783550353	0.24226143828562371	-2.573726299267497	0.0745351702552973	0.2688848621804303	-2.3825688334228254	-0.020846620564210962	0.27067115089779964	-2.427857122266576	-0.019195408412381022	0.21732236050926448	-2.619933609856275	-0.006481935870427226	0.26390742405968265	-2.4292220367168937	1.5167807132082272	0.27254014089110573	-2.357845414372996	1.7646208379311659	0.2968788982068316	-2.271671073414696	1.6340443337690056	0.299495269120404	-2.4737459943118387	1.4031399093844483	0.4620486694289673	-2.48041634971777	1.0893933640946363	0.5515736777547645	-2.4229816024744406	0.844693936176562	0.5722048300896488	-2.4927932150602965	1.4095729619528832	0.055055911119727546	-2.4388044777097395	1.0865445583545523	0.06858661241956876	-2.3851633203687674	0.8436814797564378	0.08054841606714336
26	0.8666666666666667	-2.4312657773627415	0.8425237108654755	0.31849813431091345	-2.380140639356557	0.8311027381572332	0.4181250970553671	-2.255548168573214	0.5261368476178171	0.41748691617393974	-2.2169607343296067	0.11216308071646748	0.46057656255459634	-2.009754075444283	0.06728840218568104	0.47835426839254	-2.030743402400217	0.05578898639685606	0.5197424088605332	-2.2498915352273636	0.02538996887201579	0.44959111127882395	-2.462416955276364	0.8059970424834494	0.23184254333977286	-2.473502077256859	0.4434136225820387	0.24200674759640153	-2.5733625702190492	0.06740205136715069	0.26643379216529767	-2.3773030769743317	-0.027882567097138596	0.2713373193269708	-2.4221920470879117	-0.031515787684513255	0.21792087526670784	-2.6197126771422634	-0.014722257733518658	0.26596705911877866	-2.4137890450521526	1.5179779141504643	0.27533510728806376	-2.3406106956420794	1.764672991277091	0.29703822023864185	-2.2545658394086483	1.6336351787567334	0.304396819925451	-2.4612356440023113	1.4014373141848304	0.4654672405370743	-2.4689305084680986	1.0894408201096741	0.5520004738522017	-2.420159333594677	0.8415136735872313	0.5739809685692904	-2.4778060403724114	1.4101755966574765	0.060587468259373486	-2.423307324660431	1.088465543688574	0.06611139174917151	-2.3652528669053257	0.842840553067957	0.08553796898966448
27	0.9	-2.4192540703507595	0.8371917427220005	0.3178071357050344	-2.3711448779800213	0.82887881597755	0.4170604818621192	-2.2402696638107407	0.5203424437792634	0.4150775807420448	-2.171076666964293	0.10867560353843875	0.4611833320516025	-1.9588595766961525	0.08334717690075956	0.465532950335636	-1.995234780437731	0.0735461252356828	0.5276463680069273	-2.200931502020303	0.016197739534452305	0.4441561180012863	-2.4514611977611036	0.8017430965596175	0.23309633875753807	-2.470469535545753	0.4390901800824379	0.24301026157171446	-2.5701904784760865	0.061094086506452136	0.26976448323234853	-2.3823285026128787	-0.03436370544734181	0.2757240661676101	-2.4215744034706486	-0.0359956497682274	0.225638879059843	-2.619457873646897	-0.02057485744832281	0.27467440548107414	-2.395741858294226	1.517345507730076	0.27581059716716	-2.3247635810733	1.7683183178432125	0.29394090872595935	-2.24674448257674	1.6401939133021002	0.27538489072495226	-2.4458141747150335	1.400386769094812	0.46440405422554437	-2.4577268099354117	1.0881369017516387	0.5500932108296928	-2.4202990546743113	0.8351467481779002	0.5761879783979681	-2.459324638881805	1.4126944223375635	0.06427043190960788	-2.4048670775038254	1.0862025346556057	0.0697061838887796	-2.3417681324971973	0.8418268362368474	0.08801180358285822
